<svg width="144" height="32" viewBox="0 0 144 32" fill="none" xmlns="http://www.w3.org/2000/svg">
<path d="M2.87625 16.9862C2.89347 17.0024 2.90686 17.0168 2.92216 17.0321L2.96904 17.078L4.58848 18.6974L17.3202 31.4282C18.0826 32.1906 19.3175 32.1906 20.0789 31.4282L23.49 28.0162C23.4881 28.0162 23.4871 28.0152 23.4852 28.0152C23.5053 27.998 23.5244 27.9818 23.5436 27.9626C23.6746 27.8354 23.7674 27.6661 23.799 27.471C23.8803 26.9822 23.5531 26.5249 23.071 26.4379L23.0509 26.435C21.2918 26.1069 19.7221 25.3283 18.4432 24.2397C17.1605 23.1531 16.1695 21.7555 15.5697 20.181C15.4846 19.9591 15.5678 19.7104 15.762 19.5746C16.9577 18.7386 17.8578 17.4769 18.2184 15.9665C18.228 15.9263 18.2366 15.8871 18.2462 15.8498C18.9885 12.7266 22.0351 10.6691 25.251 11.2028C25.252 11.2028 25.2539 11.2028 25.2548 11.2038C25.4567 11.2392 25.6423 11.0871 25.6432 10.8814C25.6518 9.43128 25.4643 8.01367 25.1056 6.65345C25.0253 6.35979 24.9373 6.06804 24.8426 5.77916C24.7699 5.55724 25.0176 5.36593 25.2137 5.49219C25.9043 5.93795 26.5711 6.41718 27.212 6.92415C30.1524 9.25337 32.5534 12.1881 34.2551 15.5064C34.5392 16.0602 35.3111 16.1157 35.6622 15.602C38.3128 11.7261 37.9235 6.39518 34.4961 2.94584C34.4885 2.93819 34.4808 2.93054 34.4732 2.92288C34.4655 2.91523 34.4579 2.90758 34.4502 2.89993C30.5522 -0.973163 24.2514 -0.965511 20.363 2.92288C20.3276 2.95828 20.2922 2.99558 20.2569 3.03098L19.2601 4.02675C18.9492 4.33763 18.4471 4.33763 18.1362 4.02675L17.1404 3.03098C17.104 2.99558 17.0696 2.95828 17.0323 2.92288C13.1439 -0.966467 6.84404 -0.97412 2.94417 2.89897C2.93747 2.90662 2.92886 2.91428 2.92121 2.92193C2.91451 2.92958 2.9059 2.93723 2.89825 2.94489C-0.959535 6.82659 -0.965274 13.093 2.87625 16.9862ZM6.24811 6.75006C6.25002 6.74815 6.25098 6.74623 6.25289 6.74432C6.2548 6.74241 6.25671 6.74145 6.25863 6.73954C7.17883 5.82507 8.66628 5.82699 9.58361 6.74432L9.77014 6.93085C9.88493 7.04564 10.0715 7.04564 10.1862 6.93085L10.346 6.77015C10.3546 6.76154 10.3632 6.75293 10.3718 6.74432C11.2891 5.82699 12.7775 5.82507 13.6968 6.73954C13.6987 6.74145 13.7006 6.74241 13.7025 6.74432C13.7045 6.74623 13.7054 6.74815 13.7073 6.75006C14.6199 7.6674 14.6199 9.1491 13.7092 10.0683C13.7073 10.0703 13.7054 10.0731 13.7025 10.075C13.6997 10.0779 13.6978 10.0798 13.6949 10.0827L13.3103 10.4672L10.1872 13.5904C10.0724 13.7052 9.88588 13.7052 9.7711 13.5904L6.64795 10.4672L6.26532 10.0856L6.2548 10.075C6.25193 10.0722 6.24811 10.0683 6.24524 10.0645C5.33555 9.14527 5.33651 7.66644 6.24811 6.75006ZM20.122 18.1302C20.2033 17.6424 20.6643 17.3085 21.156 17.3908C21.6458 17.4721 21.9767 17.936 21.8964 18.4248C21.8141 18.9146 21.3521 19.2484 20.8614 19.1661C20.3697 19.0858 20.0397 18.6219 20.122 18.1302Z" fill="white"/>
<path d="M52.0431 10.5869C52.9366 10.5869 53.7315 10.6826 54.4269 10.872C55.1223 11.0623 55.6637 11.3273 56.053 11.6669C56.4414 12.0064 56.6365 12.3996 56.6365 12.8463C56.6365 13.1275 56.5533 13.3887 56.3878 13.6288C56.2223 13.8689 55.9736 13.9884 55.6426 13.9884C55.4102 13.9884 55.216 13.9473 55.0591 13.8641C54.9013 13.7818 54.7569 13.6823 54.6249 13.5666C54.4919 13.4508 54.3274 13.3351 54.1284 13.2184C53.9467 13.1189 53.6769 13.0367 53.322 12.9697C52.9662 12.9037 52.6477 12.8702 52.3664 12.8702C51.4893 12.8702 50.7317 13.0692 50.0946 13.4661C49.4576 13.8631 48.9611 14.4017 48.6053 15.0799C48.2494 15.759 48.0715 16.5281 48.0715 17.389C48.0715 18.2499 48.2494 19.0199 48.6053 19.6981C48.9611 20.3773 49.4499 20.9148 50.0698 21.3118C50.6906 21.7088 51.4147 21.9077 52.2421 21.9077C52.7385 21.9077 53.1441 21.8704 53.4588 21.7958C53.7726 21.7212 54.0462 21.6265 54.2786 21.5108C54.5273 21.3615 54.7377 21.2095 54.9118 21.0516C55.0859 20.8947 55.3299 20.8163 55.6446 20.8163C56.008 20.8163 56.2854 20.9282 56.4758 21.1511C56.6662 21.3749 56.7609 21.6523 56.7609 21.9833C56.7609 22.3478 56.5418 22.6998 56.1028 23.0384C55.6637 23.378 55.0802 23.6554 54.3523 23.8706C53.6234 24.0858 52.8208 24.1929 51.9437 24.1929C50.6533 24.1929 49.5312 23.8945 48.5794 23.2995C47.6277 22.7036 46.8911 21.8924 46.3698 20.8661C45.8485 19.8397 45.5873 18.6813 45.5873 17.3899C45.5873 16.0823 45.86 14.9201 46.4071 13.9014C46.9533 12.8836 47.7147 12.0763 48.6914 11.4803C49.668 10.8844 50.7843 10.5869 52.0431 10.5869Z" fill="white"/>
<path d="M69.8446 10.6864C70.2081 10.6864 70.5065 10.8069 70.738 11.046C70.9695 11.2861 71.0862 11.5884 71.0862 11.9529V22.6787C71.0862 23.0432 70.9705 23.3454 70.738 23.5846C70.5065 23.8247 70.2081 23.9442 69.8446 23.9442C69.4964 23.9442 69.2028 23.8247 68.9627 23.5846C68.7226 23.3454 68.603 23.0422 68.603 22.6787V20.8909L69.1243 20.9655C69.1243 21.263 69.0038 21.5949 68.7647 21.9584C68.5246 22.3229 68.1974 22.6749 67.7842 23.0135C67.37 23.3531 66.8822 23.6343 66.3197 23.8572C65.7573 24.081 65.1527 24.1929 64.507 24.1929C63.3649 24.1929 62.3385 23.8993 61.4279 23.3119C60.5172 22.7246 59.797 21.9173 59.268 20.8909C58.738 19.8645 58.4731 18.6975 58.4731 17.3899C58.4731 16.0488 58.738 14.8703 59.268 13.8516C59.7979 12.8338 60.5134 12.0351 61.4154 11.4554C62.3175 10.8758 63.3228 10.5859 64.4324 10.5859C65.1441 10.5859 65.8012 10.7017 66.4058 10.9332C67.0094 11.1656 67.5355 11.4631 67.9822 11.8266C68.4289 12.191 68.7723 12.5756 69.0124 12.9812C69.2525 13.3867 69.3721 13.7713 69.3721 14.1357L68.602 14.2103V11.9509C68.602 11.6037 68.7216 11.3053 68.9617 11.0575C69.2028 10.8107 69.4964 10.6864 69.8446 10.6864ZM64.7796 21.9087C65.5573 21.9087 66.2441 21.7097 66.8401 21.3127C67.436 20.9158 67.899 20.3734 68.2309 19.6866C68.5619 18.9998 68.7274 18.2336 68.7274 17.3899C68.7274 16.53 68.5619 15.7599 68.2309 15.0808C67.8999 14.4026 67.436 13.8641 66.8401 13.4671C66.2441 13.0701 65.5573 12.8711 64.7796 12.8711C64.0182 12.8711 63.3439 13.0701 62.7565 13.4671C62.1683 13.8641 61.7053 14.4026 61.3657 15.0808C61.0261 15.7599 60.8568 16.529 60.8568 17.3899C60.8568 18.2336 61.0261 18.9998 61.3657 19.6866C61.7053 20.3734 62.1683 20.9158 62.7565 21.3127C63.3439 21.7097 64.0182 21.9087 64.7796 21.9087Z" fill="white"/>
<path d="M74.3873 11.0336H80.2223C80.5533 11.0336 80.8307 11.1455 81.0545 11.3684C81.2783 11.5922 81.3893 11.8696 81.3893 12.2006C81.3893 12.5153 81.2774 12.7802 81.0545 12.9955C80.8307 13.2107 80.5533 13.3178 80.2223 13.3178H74.3873C74.0563 13.3178 73.7789 13.2059 73.5551 12.9821C73.3322 12.7582 73.2203 12.4894 73.2203 12.1757C73.2203 11.8447 73.3322 11.5712 73.5551 11.3559C73.7789 11.1417 74.0563 11.0336 74.3873 11.0336ZM76.9949 7.80615C77.3584 7.80615 77.6568 7.92668 77.8883 8.16582C78.1198 8.40591 78.2355 8.70818 78.2355 9.07263V20.5924C78.2355 20.8909 78.2853 21.131 78.3847 21.3127C78.4842 21.4945 78.6201 21.6188 78.7941 21.6848C78.9682 21.7508 79.1462 21.7843 79.3279 21.7843C79.5097 21.7843 79.6713 21.7508 79.8119 21.6848C79.9525 21.6188 80.1218 21.5853 80.3208 21.5853C80.5198 21.5853 80.7015 21.6762 80.867 21.8589C81.0325 22.0406 81.1157 22.2893 81.1157 22.6041C81.1157 23.001 80.9005 23.3243 80.47 23.5721C80.0396 23.8208 79.5766 23.9442 79.0792 23.9442C78.798 23.9442 78.467 23.9193 78.0863 23.8696C77.7056 23.8198 77.3373 23.6955 76.9815 23.4975C76.6256 23.2985 76.332 22.98 76.1005 22.5409C75.869 22.1028 75.7533 21.4858 75.7533 20.6909V9.07263C75.7533 8.70914 75.8728 8.40687 76.1129 8.16582C76.353 7.92668 76.6467 7.80615 76.9949 7.80615Z" fill="white"/>
<path d="M90.6994 10.6616C91.9238 10.6616 92.8679 10.9639 93.5299 11.5684C94.1918 12.173 94.6309 12.988 94.8461 14.0143L94.4491 13.89L94.6232 13.493C94.8384 13.0626 95.1656 12.6283 95.6037 12.1892C96.0418 11.7511 96.5679 11.3867 97.1801 11.0969C97.7923 10.808 98.4466 10.6626 99.142 10.6626C100.284 10.6626 101.169 10.9075 101.798 11.3953C102.428 11.8841 102.866 12.5374 103.115 13.3562C103.363 14.176 103.487 15.0905 103.487 16.0996V22.6788C103.487 23.0433 103.371 23.3455 103.139 23.5847C102.907 23.8248 102.609 23.9443 102.246 23.9443C101.898 23.9443 101.604 23.8248 101.364 23.5847C101.124 23.3455 101.004 23.0423 101.004 22.6788V16.1245C101.004 15.5448 100.926 15.0159 100.768 14.5357C100.61 14.0564 100.338 13.6709 99.9484 13.3811C99.559 13.0922 99.0253 12.9468 98.3471 12.9468C97.7014 12.9468 97.1265 13.0922 96.6215 13.3811C96.1164 13.6709 95.7233 14.0555 95.442 14.5357C95.1608 15.0159 95.0202 15.5458 95.0202 16.1245V22.6788C95.0202 23.0433 94.9044 23.3455 94.672 23.5847C94.4405 23.8248 94.1421 23.9443 93.7786 23.9443C93.4141 23.9443 93.1166 23.8248 92.8852 23.5847C92.6537 23.3455 92.537 23.0423 92.537 22.6788V16.0987C92.537 15.52 92.4585 14.99 92.3017 14.5098C92.1438 14.0297 91.875 13.6499 91.4953 13.3677C91.1146 13.0865 90.5846 12.9459 89.9065 12.9459C89.2608 12.9459 88.6897 13.0865 88.1933 13.3677C87.6968 13.6489 87.3123 14.0297 87.0387 14.5098C86.7661 14.99 86.6293 15.52 86.6293 16.0987V22.6779C86.6293 23.0423 86.5088 23.3446 86.2696 23.5837C86.0295 23.8238 85.7359 23.9434 85.3877 23.9434C85.0232 23.9434 84.7257 23.8238 84.4943 23.5837C84.2628 23.3446 84.147 23.0414 84.147 22.6779V12.151C84.147 11.7875 84.2628 11.4852 84.4943 11.2451C84.7257 11.005 85.0242 10.8855 85.3877 10.8855C85.7359 10.8855 86.0286 11.006 86.2696 11.2451C86.5088 11.4852 86.6293 11.7875 86.6293 12.151V13.6155L86.1577 13.8881C86.2735 13.5246 86.4638 13.1515 86.7288 12.7708C86.9937 12.3901 87.3285 12.0429 87.7341 11.7282C88.1397 11.4144 88.5902 11.1571 89.0876 10.9582C89.5822 10.7611 90.1198 10.6616 90.6994 10.6616Z" fill="white"/>
<path d="M117.663 10.6864C118.026 10.6864 118.325 10.8069 118.556 11.046C118.788 11.2861 118.904 11.5884 118.904 11.9529V22.6787C118.904 23.0432 118.789 23.3454 118.556 23.5846C118.325 23.8247 118.026 23.9442 117.663 23.9442C117.315 23.9442 117.021 23.8247 116.781 23.5846C116.541 23.3454 116.421 23.0422 116.421 22.6787V20.8909L116.943 20.9655C116.943 21.263 116.822 21.5949 116.583 21.9584C116.343 22.3229 116.016 22.6749 115.602 23.0135C115.188 23.3531 114.7 23.6343 114.138 23.8572C113.575 24.081 112.971 24.1929 112.325 24.1929C111.183 24.1929 110.157 23.8993 109.246 23.3119C108.335 22.7246 107.615 21.9173 107.086 20.8909C106.556 19.8645 106.291 18.6975 106.291 17.3899C106.291 16.0488 106.556 14.8703 107.086 13.8516C107.616 12.8338 108.332 12.0351 109.234 11.4554C110.136 10.8758 111.141 10.5859 112.251 10.5859C112.962 10.5859 113.619 10.7017 114.224 10.9332C114.828 11.1656 115.354 11.4631 115.8 11.8266C116.247 12.191 116.59 12.5756 116.831 12.9812C117.071 13.3867 117.19 13.7713 117.19 14.1357L116.42 14.2103V11.9509C116.42 11.6037 116.54 11.3053 116.78 11.0575C117.021 10.8107 117.315 10.6864 117.663 10.6864ZM112.598 21.9087C113.376 21.9087 114.062 21.7097 114.658 21.3127C115.254 20.9158 115.717 20.3734 116.049 19.6866C116.38 18.9998 116.546 18.2336 116.546 17.3899C116.546 16.53 116.38 15.7599 116.049 15.0808C115.718 14.4026 115.254 13.8641 114.658 13.4671C114.062 13.0701 113.376 12.8711 112.598 12.8711C111.836 12.8711 111.162 13.0701 110.575 13.4671C109.986 13.8641 109.523 14.4026 109.184 15.0808C108.844 15.7599 108.675 16.529 108.675 17.3899C108.675 18.2336 108.844 18.9998 109.184 19.6866C109.523 20.3734 109.986 20.9158 110.575 21.3127C111.161 21.7097 111.835 21.9087 112.598 21.9087Z" fill="white"/>
<path d="M122.205 11.0336H128.04C128.371 11.0336 128.649 11.1455 128.873 11.3684C129.097 11.5922 129.207 11.8696 129.207 12.2006C129.207 12.5153 129.096 12.7802 128.873 12.9955C128.649 13.2107 128.371 13.3178 128.04 13.3178H122.205C121.875 13.3178 121.597 13.2059 121.373 12.9821C121.15 12.7582 121.038 12.4894 121.038 12.1757C121.038 11.8447 121.15 11.5712 121.373 11.3559C121.597 11.1417 121.875 11.0336 122.205 11.0336ZM124.812 7.80615C125.176 7.80615 125.474 7.92668 125.706 8.16582C125.937 8.40591 126.053 8.70818 126.053 9.07263V20.5924C126.053 20.8909 126.102 21.131 126.202 21.3127C126.301 21.4945 126.437 21.6188 126.611 21.6848C126.785 21.7508 126.963 21.7843 127.145 21.7843C127.327 21.7843 127.489 21.7508 127.629 21.6848C127.77 21.6188 127.939 21.5853 128.138 21.5853C128.337 21.5853 128.519 21.6762 128.684 21.8589C128.85 22.0406 128.933 22.2893 128.933 22.6041C128.933 23.001 128.718 23.3243 128.287 23.5721C127.857 23.8208 127.394 23.9442 126.896 23.9442C126.615 23.9442 126.284 23.9193 125.904 23.8696C125.523 23.8198 125.155 23.6955 124.799 23.4975C124.443 23.2985 124.149 22.98 123.918 22.5409C123.686 22.1028 123.57 21.4858 123.57 20.6909V9.07263C123.57 8.70914 123.69 8.40687 123.93 8.16582C124.171 7.92668 124.465 7.80615 124.812 7.80615Z" fill="white"/>
<path d="M137.922 24.1929C136.548 24.1929 135.356 23.9079 134.347 23.3368C133.337 22.7658 132.555 21.9795 132.001 20.978C131.446 19.9765 131.168 18.8305 131.168 17.5392C131.168 16.0833 131.462 14.8369 132.049 13.8029C132.637 12.7688 133.403 11.9739 134.346 11.4191C135.289 10.8643 136.291 10.5869 137.35 10.5869C138.161 10.5869 138.93 10.7486 139.659 11.0709C140.387 11.3933 141.037 11.841 141.608 12.412C142.179 12.9831 142.63 13.6536 142.962 14.4227C143.293 15.1927 143.467 16.0326 143.483 16.9432C143.467 17.2742 143.334 17.5478 143.086 17.763C142.837 17.9782 142.548 18.0853 142.218 18.0853H132.559L131.963 15.9752H141.298L140.827 16.4219V15.8011C140.793 15.2214 140.603 14.7125 140.256 14.2744C139.908 13.8363 139.477 13.4968 138.964 13.2567C138.452 13.0175 137.913 12.897 137.351 12.897C136.854 12.897 136.378 12.9754 135.923 13.1333C135.468 13.2911 135.063 13.5427 134.707 13.8899C134.351 14.2381 134.07 14.6972 133.862 15.2683C133.654 15.8394 133.552 16.5472 133.552 17.3909C133.552 18.3015 133.742 19.0955 134.123 19.7746C134.504 20.4538 135.017 20.9789 135.662 21.351C136.308 21.7231 137.02 21.9097 137.797 21.9097C138.41 21.9097 138.915 21.8475 139.312 21.7231C139.709 21.5988 140.039 21.4467 140.304 21.264C140.569 21.0822 140.801 20.9081 141 20.7427C141.249 20.5934 141.496 20.5188 141.745 20.5188C142.043 20.5188 142.291 20.6221 142.49 20.8297C142.689 21.0373 142.789 21.2812 142.789 21.5624C142.789 21.9269 142.606 22.2578 142.242 22.5553C141.796 22.9858 141.179 23.3665 140.392 23.6975C139.605 24.0265 138.782 24.1929 137.922 24.1929Z" fill="white"/>
</svg>
