<svg width="144" height="32" viewBox="0 0 144 32" fill="none" xmlns="http://www.w3.org/2000/svg">
<path d="M2.87625 16.9862C2.89347 17.0024 2.90686 17.0168 2.92217 17.0321L2.96904 17.078L4.58848 18.6974L17.3202 31.4282C18.0826 32.1906 19.3175 32.1906 20.0789 31.4282L23.49 28.0162C23.4881 28.0162 23.4871 28.0152 23.4852 28.0152C23.5053 27.998 23.5244 27.9818 23.5436 27.9626C23.6746 27.8354 23.7674 27.6661 23.799 27.471C23.8803 26.9822 23.5531 26.5249 23.071 26.4379L23.051 26.435C21.2918 26.1069 19.7221 25.3283 18.4432 24.2397C17.1605 23.1531 16.1695 21.7555 15.5697 20.181C15.4846 19.9591 15.5678 19.7104 15.762 19.5746C16.9577 18.7386 17.8578 17.4769 18.2184 15.9665C18.228 15.9263 18.2366 15.8871 18.2462 15.8498C18.9885 12.7266 22.0351 10.6691 25.251 11.2028C25.252 11.2028 25.2539 11.2028 25.2549 11.2038C25.4567 11.2392 25.6423 11.0871 25.6432 10.8814C25.6518 9.43128 25.4643 8.01367 25.1056 6.65345C25.0253 6.35979 24.9373 6.06804 24.8426 5.77916C24.7699 5.55724 25.0176 5.36593 25.2137 5.49219C25.9044 5.93795 26.5711 6.41718 27.212 6.92415C30.1524 9.25337 32.5534 12.1881 34.2551 15.5064C34.5392 16.0602 35.3111 16.1157 35.6622 15.602C38.3128 11.7261 37.9235 6.39518 34.4961 2.94584C34.4885 2.93819 34.4808 2.93054 34.4732 2.92288C34.4655 2.91523 34.4579 2.90758 34.4502 2.89993C30.5523 -0.973163 24.2514 -0.965511 20.363 2.92288C20.3276 2.95828 20.2922 2.99558 20.2569 3.03098L19.2601 4.02675C18.9492 4.33763 18.4471 4.33763 18.1362 4.02675L17.1404 3.03098C17.104 2.99558 17.0696 2.95828 17.0323 2.92288C13.1439 -0.966467 6.84404 -0.97412 2.94417 2.89897C2.93747 2.90662 2.92886 2.91428 2.92121 2.92193C2.91451 2.92958 2.9059 2.93723 2.89825 2.94489C-0.959535 6.82659 -0.965274 13.093 2.87625 16.9862ZM6.24811 6.75006C6.25002 6.74815 6.25098 6.74623 6.25289 6.74432C6.2548 6.74241 6.25672 6.74145 6.25863 6.73954C7.17883 5.82507 8.66628 5.82699 9.58361 6.74432L9.77014 6.93085C9.88493 7.04564 10.0715 7.04564 10.1862 6.93085L10.346 6.77015C10.3546 6.76154 10.3632 6.75293 10.3718 6.74432C11.2892 5.82699 12.7776 5.82507 13.6968 6.73954C13.6987 6.74145 13.7006 6.74241 13.7025 6.74432C13.7045 6.74623 13.7054 6.74815 13.7073 6.75006C14.6199 7.6674 14.6199 9.1491 13.7092 10.0683C13.7073 10.0703 13.7054 10.0731 13.7025 10.075C13.6997 10.0779 13.6978 10.0798 13.6949 10.0827L13.3104 10.4672L10.1872 13.5904C10.0724 13.7052 9.88589 13.7052 9.7711 13.5904L6.64795 10.4672L6.26532 10.0856L6.2548 10.075C6.25193 10.0722 6.24811 10.0683 6.24524 10.0645C5.33555 9.14527 5.33651 7.66644 6.24811 6.75006ZM20.122 18.1302C20.2033 17.6424 20.6643 17.3085 21.156 17.3908C21.6458 17.4721 21.9767 17.936 21.8964 18.4248C21.8141 18.9146 21.3521 19.2484 20.8614 19.1661C20.3697 19.0858 20.0397 18.6219 20.122 18.1302Z" fill="url(#paint0_linear_35_78)"/>
<path d="M52.0432 10.5868C52.9366 10.5868 53.7315 10.6825 54.4269 10.8719C55.1223 11.0622 55.6637 11.3272 56.0531 11.6668C56.4414 12.0064 56.6366 12.3995 56.6366 12.8462C56.6366 13.1274 56.5533 13.3886 56.3879 13.6287C56.2224 13.8688 55.9737 13.9883 55.6427 13.9883C55.4103 13.9883 55.2161 13.9472 55.0592 13.864C54.9014 13.7817 54.7569 13.6822 54.6249 13.5665C54.492 13.4507 54.3274 13.335 54.1285 13.2183C53.9467 13.1188 53.677 13.0366 53.3221 12.9696C52.9663 12.9036 52.6477 12.8701 52.3665 12.8701C51.4893 12.8701 50.7318 13.0691 50.0947 13.4661C49.4576 13.863 48.9612 14.4016 48.6053 15.0798C48.2495 15.7589 48.0716 16.528 48.0716 17.3889C48.0716 18.2498 48.2495 19.0198 48.6053 19.698C48.9612 20.3772 49.45 20.9147 50.0698 21.3117C50.6906 21.7087 51.4147 21.9076 52.2422 21.9076C52.7386 21.9076 53.1442 21.8703 53.4589 21.7957C53.7726 21.7211 54.0462 21.6264 54.2787 21.5107C54.5274 21.3615 54.7378 21.2094 54.9119 21.0515C55.086 20.8947 55.3299 20.8162 55.6446 20.8162C56.0081 20.8162 56.2855 20.9281 56.4759 21.151C56.6662 21.3748 56.7609 21.6522 56.7609 21.9832C56.7609 22.3477 56.5419 22.6997 56.1028 23.0383C55.6637 23.3779 55.0803 23.6553 54.3523 23.8705C53.6234 24.0857 52.8209 24.1929 51.9437 24.1929C50.6533 24.1929 49.5313 23.8944 48.5795 23.2994C47.6277 22.7035 46.8912 21.8923 46.3699 20.866C45.8485 19.8396 45.5874 18.6812 45.5874 17.3898C45.5874 16.0822 45.86 14.92 46.4072 13.9013C46.9534 12.8835 47.7148 12.0762 48.6914 11.4802C49.6681 10.8843 50.7844 10.5868 52.0432 10.5868Z" fill="#1E1E1E"/>
<path d="M69.8447 10.6863C70.2082 10.6863 70.5066 10.8068 70.7381 11.0459C70.9696 11.286 71.0863 11.5883 71.0863 11.9528V22.6786C71.0863 23.0431 70.9705 23.3453 70.7381 23.5845C70.5066 23.8246 70.2082 23.9441 69.8447 23.9441C69.4965 23.9441 69.2028 23.8246 68.9627 23.5845C68.7226 23.3453 68.6031 23.0421 68.6031 22.6786V20.8908L69.1244 20.9654C69.1244 21.2629 69.0039 21.5948 68.7647 21.9583C68.5246 22.3228 68.1975 22.6748 67.7843 23.0134C67.3701 23.353 66.8822 23.6342 66.3198 23.8571C65.7573 24.0809 65.1528 24.1928 64.5071 24.1928C63.365 24.1928 62.3386 23.8992 61.4279 23.3119C60.5173 22.7245 59.797 21.9172 59.268 20.8908C58.7381 19.8644 58.4731 18.6974 58.4731 17.3898C58.4731 16.0487 58.7381 14.8703 59.268 13.8515C59.798 12.8337 60.5135 12.035 61.4155 11.4554C62.3175 10.8757 63.3229 10.5858 64.4325 10.5858C65.1442 10.5858 65.8013 10.7016 66.4059 10.9331C67.0094 11.1655 67.5356 11.463 67.9823 11.8265C68.429 12.1909 68.7724 12.5755 69.0125 12.9811C69.2526 13.3866 69.3721 13.7712 69.3721 14.1356L68.6021 14.2102V11.9509C68.6021 11.6036 68.7217 11.3052 68.9618 11.0574C69.2028 10.8106 69.4965 10.6863 69.8447 10.6863ZM64.7797 21.9086C65.5574 21.9086 66.2442 21.7096 66.8401 21.3127C67.4361 20.9157 67.899 20.3733 68.231 19.6865C68.5619 18.9997 68.7274 18.2335 68.7274 17.3898C68.7274 16.5299 68.5619 15.7599 68.231 15.0807C67.9 14.4025 67.4361 13.864 66.8401 13.467C66.2442 13.07 65.5574 12.8711 64.7797 12.8711C64.0183 12.8711 63.3439 13.07 62.7566 13.467C62.1683 13.864 61.7054 14.4025 61.3658 15.0807C61.0262 15.7599 60.8569 16.5289 60.8569 17.3898C60.8569 18.2335 61.0262 18.9997 61.3658 19.6865C61.7054 20.3733 62.1683 20.9157 62.7566 21.3127C63.3439 21.7096 64.0183 21.9086 64.7797 21.9086Z" fill="#1E1E1E"/>
<path d="M74.3873 11.0335H80.2223C80.5533 11.0335 80.8307 11.1454 81.0545 11.3683C81.2784 11.5921 81.3893 11.8695 81.3893 12.2005C81.3893 12.5152 81.2774 12.7802 81.0545 12.9954C80.8307 13.2106 80.5533 13.3178 80.2223 13.3178H74.3873C74.0564 13.3178 73.779 13.2058 73.5551 12.982C73.3323 12.7582 73.2204 12.4894 73.2204 12.1756C73.2204 11.8447 73.3323 11.5711 73.5551 11.3559C73.779 11.1416 74.0564 11.0335 74.3873 11.0335ZM76.9949 7.80609C77.3584 7.80609 77.6569 7.92662 77.8883 8.16576C78.1198 8.40585 78.2356 8.70812 78.2356 9.07257V20.5924C78.2356 20.8908 78.2853 21.1309 78.3848 21.3126C78.4843 21.4944 78.6201 21.6187 78.7942 21.6847C78.9683 21.7507 79.1462 21.7842 79.328 21.7842C79.5097 21.7842 79.6714 21.7507 79.812 21.6847C79.9526 21.6187 80.1219 21.5853 80.3209 21.5853C80.5198 21.5853 80.7016 21.6761 80.8671 21.8588C81.0325 22.0406 81.1158 22.2893 81.1158 22.604C81.1158 23.001 80.9005 23.3243 80.4701 23.572C80.0396 23.8207 79.5767 23.9441 79.0793 23.9441C78.798 23.9441 78.4671 23.9193 78.0863 23.8695C77.7056 23.8198 77.3374 23.6954 76.9815 23.4974C76.6257 23.2985 76.332 22.9799 76.1005 22.5409C75.8691 22.1028 75.7533 21.4858 75.7533 20.6909V9.07257C75.7533 8.70908 75.8729 8.40681 76.113 8.16576C76.3531 7.92662 76.6467 7.80609 76.9949 7.80609Z" fill="#1E1E1E"/>
<path d="M90.6995 10.6614C91.9239 10.6614 92.868 10.9637 93.5299 11.5682C94.1919 12.1728 94.6309 12.9877 94.8461 14.0141L94.4492 13.8898L94.6233 13.4928C94.8385 13.0624 95.1656 12.6281 95.6037 12.189C96.0418 11.7509 96.5679 11.3865 97.1801 11.0966C97.7923 10.8078 98.4466 10.6624 99.142 10.6624C100.284 10.6624 101.169 10.9072 101.798 11.3951C102.428 11.8839 102.866 12.5372 103.115 13.356C103.363 14.1758 103.487 15.0903 103.487 16.0994V22.6786C103.487 23.0431 103.371 23.3453 103.139 23.5845C102.907 23.8246 102.61 23.9441 102.246 23.9441C101.898 23.9441 101.604 23.8246 101.364 23.5845C101.124 23.3453 101.004 23.0421 101.004 22.6786V16.1243C101.004 15.5446 100.926 15.0156 100.768 14.5355C100.61 14.0562 100.338 13.6707 99.9484 13.3809C99.5591 13.092 99.0253 12.9466 98.3471 12.9466C97.7015 12.9466 97.1266 13.092 96.6215 13.3809C96.1165 13.6707 95.7233 14.0553 95.4421 14.5355C95.1609 15.0156 95.0202 15.5456 95.0202 16.1243V22.6786C95.0202 23.0431 94.9045 23.3453 94.6721 23.5845C94.4406 23.8246 94.1421 23.9441 93.7786 23.9441C93.4142 23.9441 93.1167 23.8246 92.8852 23.5845C92.6537 23.3453 92.537 23.0421 92.537 22.6786V16.0985C92.537 15.5198 92.4586 14.9898 92.3017 14.5096C92.1439 14.0294 91.8751 13.6497 91.4953 13.3675C91.1146 13.0863 90.5847 12.9457 89.9065 12.9457C89.2608 12.9457 88.6898 13.0863 88.1933 13.3675C87.6969 13.6487 87.3123 14.0294 87.0387 14.5096C86.7661 14.9898 86.6293 15.5198 86.6293 16.0985V22.6776C86.6293 23.0421 86.5088 23.3444 86.2697 23.5835C86.0296 23.8236 85.7359 23.9432 85.3877 23.9432C85.0233 23.9432 84.7258 23.8236 84.4943 23.5835C84.2628 23.3444 84.1471 23.0411 84.1471 22.6776V12.1508C84.1471 11.7873 84.2628 11.485 84.4943 11.2449C84.7258 11.0048 85.0242 10.8852 85.3877 10.8852C85.7359 10.8852 86.0286 11.0058 86.2697 11.2449C86.5088 11.485 86.6293 11.7873 86.6293 12.1508V13.6152L86.1578 13.8879C86.2735 13.5244 86.4639 13.1513 86.7288 12.7706C86.9938 12.3899 87.3286 12.0427 87.7342 11.728C88.1397 11.4142 88.5903 11.1569 89.0877 10.9579C89.5822 10.7609 90.1198 10.6614 90.6995 10.6614Z" fill="#1E1E1E"/>
<path d="M117.663 10.6863C118.026 10.6863 118.325 10.8068 118.556 11.0459C118.788 11.286 118.904 11.5883 118.904 11.9528V22.6786C118.904 23.0431 118.789 23.3453 118.556 23.5845C118.325 23.8246 118.026 23.9441 117.663 23.9441C117.315 23.9441 117.021 23.8246 116.781 23.5845C116.541 23.3453 116.421 23.0421 116.421 22.6786V20.8908L116.943 20.9654C116.943 21.2629 116.822 21.5948 116.583 21.9583C116.343 22.3228 116.016 22.6748 115.602 23.0134C115.188 23.353 114.7 23.6342 114.138 23.8571C113.575 24.0809 112.971 24.1928 112.325 24.1928C111.183 24.1928 110.157 23.8992 109.246 23.3119C108.335 22.7245 107.615 21.9172 107.086 20.8908C106.556 19.8644 106.291 18.6974 106.291 17.3898C106.291 16.0487 106.556 14.8703 107.086 13.8515C107.616 12.8337 108.332 12.035 109.234 11.4554C110.136 10.8757 111.141 10.5858 112.251 10.5858C112.962 10.5858 113.619 10.7016 114.224 10.9331C114.828 11.1655 115.354 11.463 115.8 11.8265C116.247 12.1909 116.591 12.5755 116.831 12.9811C117.071 13.3866 117.19 13.7712 117.19 14.1356L116.42 14.2102V11.9509C116.42 11.6036 116.54 11.3052 116.78 11.0574C117.021 10.8106 117.315 10.6863 117.663 10.6863ZM112.598 21.9086C113.376 21.9086 114.062 21.7096 114.658 21.3127C115.254 20.9157 115.717 20.3733 116.049 19.6865C116.38 18.9997 116.546 18.2335 116.546 17.3898C116.546 16.5299 116.38 15.7599 116.049 15.0807C115.718 14.4025 115.254 13.864 114.658 13.467C114.062 13.07 113.376 12.8711 112.598 12.8711C111.836 12.8711 111.162 13.07 110.575 13.467C109.986 13.864 109.524 14.4025 109.184 15.0807C108.844 15.7599 108.675 16.5289 108.675 17.3898C108.675 18.2335 108.844 18.9997 109.184 19.6865C109.524 20.3733 109.986 20.9157 110.575 21.3127C111.161 21.7096 111.836 21.9086 112.598 21.9086Z" fill="#1E1E1E"/>
<path d="M122.206 11.0335H128.041C128.371 11.0335 128.649 11.1454 128.873 11.3683C129.097 11.5921 129.208 11.8695 129.208 12.2005C129.208 12.5152 129.096 12.7802 128.873 12.9954C128.649 13.2106 128.371 13.3178 128.041 13.3178H122.206C121.875 13.3178 121.597 13.2058 121.373 12.982C121.15 12.7582 121.039 12.4894 121.039 12.1756C121.039 11.8447 121.15 11.5711 121.373 11.3559C121.597 11.1416 121.875 11.0335 122.206 11.0335ZM124.812 7.80609C125.176 7.80609 125.474 7.92662 125.706 8.16576C125.937 8.40585 126.053 8.70812 126.053 9.07257V20.5924C126.053 20.8908 126.103 21.1309 126.202 21.3126C126.302 21.4944 126.437 21.6187 126.611 21.6847C126.786 21.7507 126.963 21.7842 127.145 21.7842C127.327 21.7842 127.489 21.7507 127.629 21.6847C127.77 21.6187 127.939 21.5853 128.138 21.5853C128.337 21.5853 128.519 21.6761 128.684 21.8588C128.85 22.0406 128.933 22.2893 128.933 22.604C128.933 23.001 128.718 23.3243 128.287 23.572C127.857 23.8207 127.394 23.9441 126.896 23.9441C126.615 23.9441 126.284 23.9193 125.904 23.8695C125.523 23.8198 125.155 23.6954 124.799 23.4974C124.443 23.2985 124.149 22.9799 123.918 22.5409C123.686 22.1028 123.571 21.4858 123.571 20.6909V9.07257C123.571 8.70908 123.69 8.40681 123.93 8.16576C124.171 7.92662 124.465 7.80609 124.812 7.80609Z" fill="#1E1E1E"/>
<path d="M137.922 24.1929C136.548 24.1929 135.356 23.9078 134.347 23.3367C133.337 22.7657 132.555 21.9794 132.001 20.9779C131.446 19.9764 131.168 18.8304 131.168 17.5391C131.168 16.0832 131.462 14.8368 132.049 13.8028C132.637 12.7687 133.403 11.9738 134.346 11.419C135.289 10.8642 136.291 10.5868 137.35 10.5868C138.161 10.5868 138.93 10.7485 139.659 11.0708C140.387 11.3932 141.037 11.8409 141.608 12.4119C142.179 12.983 142.63 13.6535 142.962 14.4226C143.293 15.1926 143.467 16.0325 143.483 16.9431C143.467 17.2741 143.334 17.5477 143.086 17.7629C142.837 17.9781 142.548 18.0853 142.218 18.0853H132.559L131.963 15.9751H141.298L140.827 16.4218V15.801C140.793 15.2213 140.603 14.7124 140.256 14.2743C139.908 13.8362 139.477 13.4967 138.964 13.2566C138.452 13.0174 137.913 12.8969 137.351 12.8969C136.854 12.8969 136.378 12.9753 135.923 13.1332C135.468 13.291 135.063 13.5426 134.707 13.8898C134.351 14.238 134.07 14.6971 133.862 15.2682C133.655 15.8393 133.552 16.5471 133.552 17.3908C133.552 18.3014 133.743 19.0954 134.123 19.7745C134.504 20.4537 135.017 20.9788 135.662 21.3509C136.308 21.723 137.02 21.9096 137.797 21.9096C138.41 21.9096 138.915 21.8474 139.312 21.723C139.709 21.5987 140.04 21.4466 140.305 21.2639C140.569 21.0821 140.801 20.908 141 20.7426C141.249 20.5933 141.496 20.5187 141.745 20.5187C142.044 20.5187 142.291 20.622 142.49 20.8296C142.689 21.0372 142.789 21.2811 142.789 21.5623C142.789 21.9268 142.606 22.2577 142.242 22.5552C141.796 22.9857 141.179 23.3664 140.393 23.6974C139.605 24.0264 138.782 24.1929 137.922 24.1929Z" fill="#1E1E1E"/>
<defs>
<linearGradient id="paint0_linear_35_78" x1="7.28201" y1="21.3923" x2="30.1124" y2="-1.43816" gradientUnits="userSpaceOnUse">
<stop stop-color="#FF86A3"/>
<stop offset="1" stop-color="#FFE67D"/>
</linearGradient>
</defs>
</svg>
